<?xml version="1.0" encoding="UTF-8" standalone="no"?>
<!-- Created with Inkscape (http://www.inkscape.org/) -->

<svg
   width="53.574661mm"
   height="7.8671951mm"
   viewBox="0 0 53.574661 7.8671951"
   version="1.1"
   id="svg8725"
   xml:space="preserve"
   sodipodi:docname="logoLang001.svg"
   inkscape:version="1.3.2 (091e20e, 2023-11-25)"
   xmlns:inkscape="http://www.inkscape.org/namespaces/inkscape"
   xmlns:sodipodi="http://sodipodi.sourceforge.net/DTD/sodipodi-0.dtd"
   xmlns="http://www.w3.org/2000/svg"
   xmlns:svg="http://www.w3.org/2000/svg"><sodipodi:namedview
     id="namedview8727"
     pagecolor="#505050"
     bordercolor="#eeeeee"
     borderopacity="1"
     inkscape:showpageshadow="0"
     inkscape:pageopacity="0"
     inkscape:pagecheckerboard="0"
     inkscape:deskcolor="#505050"
     inkscape:document-units="mm"
     showgrid="true"
     inkscape:zoom="256"
     inkscape:cx="103.97656"
     inkscape:cy="-0.080078125"
     inkscape:window-width="1440"
     inkscape:window-height="900"
     inkscape:window-x="0"
     inkscape:window-y="0"
     inkscape:window-maximized="0"
     inkscape:current-layer="layer2"><inkscape:grid
       type="xygrid"
       id="grid15514"
       spacingx="0.5"
       spacingy="0.5"
       originx="0"
       originy="0"
       units="mm"
       visible="true" /></sodipodi:namedview><defs
     id="defs8722"><linearGradient
       id="linearGradient35131"
       inkscape:swatch="solid"><stop
         style="stop-color:#787878;stop-opacity:1;"
         offset="0"
         id="stop35129" /></linearGradient><linearGradient
       id="linearGradient24195"
       inkscape:swatch="solid"><stop
         style="stop-color:#000000;stop-opacity:1;"
         offset="0"
         id="stop24193" /></linearGradient><linearGradient
       id="linearGradient24187"
       inkscape:swatch="solid"><stop
         style="stop-color:#000000;stop-opacity:1;"
         offset="0"
         id="stop24185" /></linearGradient><linearGradient
       id="linearGradient24179"
       inkscape:swatch="solid"><stop
         style="stop-color:#dada39;stop-opacity:1;"
         offset="0"
         id="stop24177" /></linearGradient><linearGradient
       id="linearGradient23445"
       inkscape:swatch="solid"><stop
         style="stop-color:#f9f4d7;stop-opacity:1;"
         offset="0"
         id="stop23443" /></linearGradient><linearGradient
       id="linearGradient21831"
       inkscape:swatch="solid"><stop
         style="stop-color:#324c78;stop-opacity:1;"
         offset="0"
         id="stop21829" /></linearGradient></defs><g
     inkscape:groupmode="layer"
     id="layer2"
     inkscape:label="Layer 4"
     transform="translate(-144.58159,-117.93359)"><path
       style="color:#000000;fill-opacity:1;stroke-linecap:square;stroke-miterlimit:3.8;stroke-dashoffset:1.51048;paint-order:markers fill stroke"
       d="m 160.03179,117.93359 c -0.67943,0 -1.23126,0.31853 -1.65234,0.73633 -0.42109,0.4178 -0.74805,0.97626 -0.74805,1.66406 v 3.06641 c 0,0.68282 0.31945,1.25415 0.74414,1.67383 0.42469,0.41968 0.98669,0.72656 1.65625,0.72656 h 9.90039 v -1.90039 -1 V 121 h -8.36328 -0.90039 v 1.80078 h 0.90039 6.5625 v 0.0996 1 V 124 h -8.09961 c -0.0632,0 -0.25045,-0.0646 -0.39258,-0.20508 -0.14213,-0.14045 -0.20703,-0.31788 -0.20703,-0.39453 v -3.06641 c 0,-0.0449 0.0666,-0.2377 0.2168,-0.38672 0.15019,-0.14902 0.34733,-0.21289 0.38281,-0.21289 h 9 0.90039 v -1.80078 h -0.90039 z"
       id="path340"
       inkscape:export-filename="logoLang001.svg"
       inkscape:export-xdpi="956.73352"
       inkscape:export-ydpi="956.73352"
       sodipodi:nodetypes="scssssccccccccccccscsscsccccs" /><path
       style="color:#000000;fill-opacity:1;stroke-linecap:square;stroke-miterlimit:3.8;stroke-dashoffset:1.51048;paint-order:markers fill stroke"
       d="m 171.98158,117.93412 0.006,3.96627 v 0.0625 l -0.006,0.77149 h 0.006 v 3 l 9.39844,0.0664 h 0.002 c 1.61,0 2.77539,-1.15039 2.77539,-2.40039 0,-0.56135 -0.29844,-1.07408 -0.70312,-1.5 0.4054,-0.42611 0.70312,-1.00452 0.70312,-1.56641 0,-1.25 -1.16539,-2.40039 -2.77539,-2.40039 z m 1.80078,1.8125 7.60386,-0.0122 h 0.002 c 0.89,0 0.97461,0.34961 0.97461,0.59961 0,0.25 -0.0846,0.66602 -0.97461,0.66602 l -7.59961,-0.0547 z m 0.006,2.99947 7.59375,0.0547 h 0.006 c 0.89,0 0.97461,0.34961 0.97461,0.59961 0,0.25 -0.0846,0.59961 -0.97461,0.59961 l -7.59961,-0.0527 z"
       id="path342"
       sodipodi:nodetypes="cccccccsscsccccsscccccssccc" /><path
       style="color:#000000;fill-opacity:1;stroke-linecap:square;stroke-linejoin:round;stroke-miterlimit:3.8;stroke-dashoffset:1.51048;-inkscape-stroke:none;paint-order:markers fill stroke"
       d="m 188.78125,117.93359 c -1.61,0 -2.77539,1.15039 -2.77539,2.40039 0,1.25 1.16539,2.4668 2.77539,2.4668 h 6.59961 c 0.89,0 0.97461,0.34961 0.97461,0.59961 0,0.25 -0.0846,0.59961 -0.97461,0.59961 h -8.4707 -0.90039 v 1.80078 h 0.90039 8.4707 c 1.61,0 2.77539,-1.15039 2.77539,-2.40039 0,-1.25 -1.16539,-2.40039 -2.77539,-2.40039 h -6.59961 c -0.89,0 -0.97461,-0.41602 -0.97461,-0.66602 0,-0.25 0.0846,-0.59961 0.97461,-0.59961 h 8.47266 0.90039 v -1.80078 h -0.90039 z"
       id="path344"
       sodipodi:nodetypes="ssssssccccssssssccccs" /><path
       id="path2486"
       style="color:#000000;fill-opacity:1;stroke-linecap:square;stroke-miterlimit:3.8;stroke-dashoffset:1.51048;paint-order:markers fill stroke"
       d="m 144.58159,117.93359 0.25425,0.38705 5.14977,7.47508 h 0.84595 0.84749 l 5.10798,-7.4203 0.29456,-0.44183 h -2.16318 l -4.08324,5.87775 -4.09919,-5.87775 z"
       sodipodi:nodetypes="ccccccccccc" /></g></svg>
