<?xml version="1.0" encoding="UTF-8" standalone="no"?>
<!-- Created with Inkscape (http://www.inkscape.org/) -->

<svg
   width="297mm"
   height="210mm"
   viewBox="0 0 1122.5197 793.70081"
   version="1.1"
   id="svg1"
   xml:space="preserve"
   sodipodi:docname="DE_2.svg.2025_02_07_12_28_37.0.svg"
   inkscape:version="1.3.2 (091e20e, 2023-11-25)"
   inkscape:export-filename="DE-R.svg"
   inkscape:export-xdpi="96"
   inkscape:export-ydpi="96"
   xmlns:inkscape="http://www.inkscape.org/namespaces/inkscape"
   xmlns:sodipodi="http://sodipodi.sourceforge.net/DTD/sodipodi-0.dtd"
   xmlns="http://www.w3.org/2000/svg"
   xmlns:svg="http://www.w3.org/2000/svg"><sodipodi:namedview
     id="namedview1"
     pagecolor="#ffffff"
     bordercolor="#000000"
     borderopacity="0.25"
     inkscape:showpageshadow="2"
     inkscape:pageopacity="0.0"
     inkscape:pagecheckerboard="0"
     inkscape:deskcolor="#d1d1d1"
     inkscape:document-units="mm"
     inkscape:zoom="0.81869761"
     inkscape:cx="813.48717"
     inkscape:cy="-245.51189"
     inkscape:window-width="1440"
     inkscape:window-height="847"
     inkscape:window-x="0"
     inkscape:window-y="25"
     inkscape:window-maximized="0"
     inkscape:current-layer="layer1" /><defs
     id="defs1" /><g
     inkscape:label="Layer 1"
     inkscape:groupmode="layer"
     id="layer1"><g
       style="font-family:'Liberation Sans', Arial, Frutiger, Helvetica, sans-serif"
       id="g1"
       transform="translate(384.66496,-448.57265)"><rect
         width="210mm"
         height="110mm"
         fill="#ffffff"
         id="rect1"
         x="0"
         y="0"
         style="fill:#ffffff;fill-opacity:0" /><line
         x1="234.3307"
         y1="18.897638"
         x2="234.3307"
         y2="387.40158"
         stroke-width="0.1mm"
         id="line3"
         stroke="#000000" /><line
         x1="234.3307"
         y1="396.09451"
         x2="234.3307"
         y2="415.74802"
         stroke-width="0.1mm"
         id="line4"
         stroke="#000000" /><svg
         x="228.66142"
         y="385.51181"
         width="3mm"
         height="3mm"
         viewBox="0 0 12 12"
         version="1.1"
         id="svg7"><path
           fill="#000000"
           transform="rotate(-90,6,6)"
           d="M 3,1 A 2,2 0 0 1 4.72,4 L 6,5.3 9.65,1.65 a 0.49497475,0.49497475 45 0 1 0.7,0.7 L 6.7,6 H 5.3 L 4,4.72 A 2,2 0 1 1 3,1 V 2 A 1,1 0 0 0 2,3 1,1 0 1 0 3,2 Z"
           id="path6" /><path
           fill="#000000"
           transform="rotate(-90,6,6)"
           d="M 3,11 A 2,2 0 0 0 4.72,8 L 6.7,6 H 5.3 L 4,7.28 A 2,2 0 1 0 3,11 V 10 A 1,1 0 0 1 2,9 1,1 0 1 1 3,10 Z m 4.15,-3.15 2.5,2.5 a 0.49497475,0.49497475 45 0 0 0.7,-0.7 l -2.5,-2.5 a 0.49497475,0.49497475 45 0 0 -0.7,0.7 z"
           id="path7" /></svg><svg
         class="receipt"
         x="0mm"
         y="18.897638"
         width="62mm"
         height="105mm"
         version="1.1"
         id="svg23"><svg
           class="innerReceipt"
           x="18.897638"
           y="18.897638"
           width="53mm"
           height="95mm"
           version="1.1"
           id="svg22"><text
             x="0mm"
             y="3mm"
             font-size="14.6667px"
             font-weight="bold"
             id="text7">Empfangsschein</text><text
             x="0mm"
             y="3.6500001mm"
             id="text10"><tspan
               x="0mm"
               dy="18pt"
               font-size="8px"
               font-weight="bold"
               id="tspan7">Konto / Zahlbar an</tspan><tspan
               x="0mm"
               dy="9pt"
               font-size="10.6667px"
               id="tspan8">CH85 8080 8001 0401 1366 6</tspan><tspan
               x="0mm"
               dy="9pt"
               font-size="10.6667px"
               id="tspan9">Verein Gürbetalbahn 742</tspan><tspan
               x="0mm"
               dy="9pt"
               font-size="10.6667px"
               id="tspan10">3127 Mühlethurnen</tspan></text><text
             x="0mm"
             y="42mm"
             font-size="8px"
             font-weight="bold"
             id="text11">Zahlbar durch (Name/Adresse)</text><svg
             x="-1.1338583"
             y="161.38583"
             width="52.599998mm"
             height="20.6mm"
             version="1.1"
             id="svg15"><svg
               x="1.1338583"
               y="1.1338583"
               width="3mm"
               height="3mm"
               viewBox="0 0 12 12"
               version="1.1"
               id="svg11"><path
                 d="M 0,0 H 12 V 1 H 1 V 12 H 0 Z"
                 id="path11" /></svg><svg
               x="186.3307"
               y="1.1338583"
               width="3mm"
               height="3mm"
               viewBox="0 0 12 12"
               version="1.1"
               id="svg12"><path
                 d="M 0,0 H 12 V 12 H 11 V 1 H 0 Z"
                 id="path12" /></svg><svg
               x="1.1338583"
               y="65.385826"
               width="3mm"
               height="3mm"
               viewBox="0 0 12 12"
               version="1.1"
               id="svg13"><path
                 d="m 0,0 h 1 v 11 h 11 v 1 H 0 Z"
                 id="path13" /></svg><svg
               x="186.3307"
               y="65.385826"
               width="3mm"
               height="3mm"
               viewBox="0 0 12 12"
               version="1.1"
               id="svg14"><path
                 d="m 11,0 h 1 V 12 H 0 v -1 h 11 z"
                 id="path14" /></svg></svg><text
             x="0mm"
             y="66mm"
             font-size="8px"
             font-weight="bold"
             id="text15">Währung</text><text
             x="0mm"
             y="70mm"
             font-size="10.6667px"
             id="text16">CHF</text><text
             x="22mm"
             y="66mm"
             font-size="8px"
             font-weight="bold"
             id="text17">Betrag</text><svg
             x="82.015755"
             y="252.09448"
             width="30.6mm"
             height="10.6mm"
             version="1.1"
             id="svg21"><svg
               x="1.1338583"
               y="1.1338583"
               width="3mm"
               height="3mm"
               viewBox="0 0 12 12"
               version="1.1"
               id="svg17"><path
                 d="M 0,0 H 12 V 1 H 1 V 12 H 0 Z"
                 id="path17" /></svg><svg
               x="103.1811"
               y="1.1338583"
               width="3mm"
               height="3mm"
               viewBox="0 0 12 12"
               version="1.1"
               id="svg18"><path
                 d="M 0,0 H 12 V 12 H 11 V 1 H 0 Z"
                 id="path18" /></svg><svg
               x="1.1338583"
               y="27.590551"
               width="3mm"
               height="3mm"
               viewBox="0 0 12 12"
               version="1.1"
               id="svg19"><path
                 d="m 0,0 h 1 v 11 h 11 v 1 H 0 Z"
                 id="path19" /></svg><svg
               x="103.1811"
               y="27.590551"
               width="3mm"
               height="3mm"
               viewBox="0 0 12 12"
               version="1.1"
               id="svg20"><path
                 d="m 11,0 h 1 V 12 H 0 v -1 h 11 z"
                 id="path20" /></svg></svg><!----><text
             x="52mm"
             y="80mm"
             text-anchor="end"
             font-size="8px"
             font-weight="bold"
             id="text21">Annahmestelle</text></svg></svg><svg
         class="payment"
         x="234.3307"
         y="18.897638"
         width="148mm"
         height="105mm"
         version="1.1"
         id="svg42"><svg
           class="innerPayment"
           x="18.897638"
           y="18.897638"
           width="138mm"
           height="95mm"
           version="1.1"
           id="svg41"><text
             x="0mm"
             y="3mm"
             font-size="14.6667px"
             font-weight="bold"
             id="text23">Zahlteil</text><svg
             id="qr_code_svg"
             width="46mm"
             height="46mm"
             x="0mm"
             y="45.354332"
             version="1.1"><svg
               width="46mm"
               height="46mm"
               viewBox="0 0 49 49"
               version="1.1"
               id="svg24"><path
                 d="M 0,0 H 7 V 7 H 0 Z m 10,0 h 1 v 1 h 1 V 0 h 1 v 2 h 3 V 0 h 1 v 1 h 2 v 2 h 1 V 1 h 1 V 2 H 18 V 3 H 16 V 4 H 13 V 3 H 9 V 1 H 8 v 1 h 3 V 9 H 8 v 4 H 4 V 12 H 3 V 8 H 2 V 9 H 7 V 8 H 6 v 3 h 8 v -1 h 2 V 9 h 1 V 8 h 2 V 9 H 18 V 5 h 1 V 4 H 17 V 7 H 15 V 5 H 14 V 8 H 13 V 6 H 8 v 1 h 4 V 5 h -2 v 3 h 2 v 1 h 1 v 7 H 8 v 2 h 5 v 1 h 1 v -5 h -3 v -4 h -1 v 3 h 2 v 2 H 9 v -1 h 1 v 5 H 8 v 1 h 2 v 1 H 8 v 1 H 4 V 21 H 7 V 20 H 4 v -2 h 3 v 1 H 6 v -2 h 3 v 6 h 1 v 1 H 9 v 1 h 3 v -1 h 8 v -3 h -1 v -3 h 1 v 2 h -2 v 2 h 1 v 1 h -1 v 3 h -1 v 1 h 1 v 2 h -1 v 2 h -2 v -1 h -2 v 1 H 9 v 4 H 8 v 2 H 6 v 1 h 1 v 1 H 5 v -3 h 4 v 3 h 3 v -1 h 1 v 2 h 1 v 1 h -1 v 3 h 2 v 1 h -1 v 1 h 1 v 3 h 4 v -2 h -1 v 1 h -2 v -2 h 2 v -1 h 1 v -5 h 1 v -3 h 1 v 3 h 2 v -1 h 3 v -3 h -2 v -2 h -1 v 1 h 4 v 1 h 1 v 4 h -4 v -3 h -1 v 1 h -1 v 4 h -1 v 4 h -1 v -4 h -2 v -1 h -1 v 1 h -2 v -1 h 1 v -3 h -2 v -2 h -2 v 1 h 1 v -3 h 1 v 1 h -4 v 1 h 1 v 2 H 8 v 2 h 1 v 4 H 8 v 1 h 3 v 2 h 1 v 2 H 8 v -1 h 2 V 47 H 8 v -1 h 2 v -2 h 2 v -1 h -1 v -1 h 3 v 1 h 3 v 1 h 5 v 4 h -2 v -1 h 3 v -1 h 4 v 1 h -2 v -2 h -1 v 4 h 1 v -1 h 3 v 1 h -2 v -4 h 1 v -1 h 6 v 1 h 1 v -1 h 1 v 5 h -1 v -1 h 9 v -1 h 2 v -1 h 2 v 2 h 1 v -2 h 1 v 3 h -9 v -3 h -2 v -1 h 1 v 4 h -1 v -2 h -1 v -3 h -1 v 3 h -2 v -1 h -1 v 2 h -4 v -2 h 2 v -1 h 1 v 4 h -2 v -2 h -2 v -6 h -1 v 2 h 8 v -1 h -1 v -1 h -2 v -5 h -1 v 1 h -1 v -2 h -2 v -2 h -5 v -2 h -3 v 1 h 2 v 1 h -1 v -3 h -1 v -1 h 1 v -6 h 1 v -8 h 2 v -3 h -4 v 2 h 1 V 6 h -1 v 5 h 2 V 9 h 3 v 3 h 2 v 3 h -1 v 2 h -1 v 2 h -1 v -2 h -6 v 1 h -2 v 1 h -1 v 4 h 1 v 3 h -1 v -1 h -1 v 1 h -2 v 1 h 2 v 6 h -3 v 1 h 1 v -5 h -1 v -1 h 4 v -1 h 1 v 5 h -1 v 1 h 1 v 1 h 2 v 2 h -2 v -1 h 1 v 3 h 1 v 1 h -1 v 1 h -2 v -3 h 4 v -2 h 3 v -1 h -1 v 2 h -1 v -3 h -3 v -1 h 1 v -2 h 1 v -4 h 1 v 2 h 12 v -1 h 1 v -2 h 1 v -1 h -1 v -3 h 1 v -1 h 1 v -1 h 1 v -2 h -1 v -2 h 1 v -2 h -1 v -2 h -1 v 2 h -1 v -2 h -1 v 4 h 2 v 2 h -1 v 3 h -2 v -2 h 8 v -2 h -6 v -2 h 10 v 1 h 2 v -1 h 2 v -4 h -4 v 3 h 3 v 3 h -3 v 3 h 2 v 5 h 1 v -5 h 1 v 2 h 2 v -1 h -1 v -1 h 1 v -2 h -4 v 1 h 2 v -2 h 1 v -2 h 1 V 12 H 45 V 8 h -1 v 4 h -5 v -2 h -2 v 3 h 1 V 12 H 28 v 3 h 2 v 3 h -2 v -1 h 1 v -3 h 2 V 11 H 28 V 8 h -1 v 1 h -1 v 5 h -4 v -1 h 1 v -3 h -5 v 2 h 1 v 3 h -1 v -1 h -1 v 2 h -2 v -3 h -1 v -1 h 1 V 8 h 1 V 6 h 3 v 1 h 3 V 5 H 20 V 4 h 1 V 3 h 2 V 4 H 22 V 2 h 1 V 1 H 22 V 0 h 2 v 2 h 6 v 2 h 1 V 3 h 1 v 4 h 1 V 6 h -6 v 1 h 1 V 3 h -1 v 2 h 3 v 2 h 1 V 5 h 2 V 4 h 2 v 1 h 4 v 4 h 1 v 4 h -1 v 2 h -1 v 2 h -1 v 2 h 1 v 3 h -1 v -1 h -1 v -1 h 3 v 1 h 2 v -1 h -1 v 2 h 2 v -1 h 1 v -1 h 1 v 2 h 4 v 3 h -3 v 2 h -1 v 1 h -5 v 2 h 3 v -3 h 1 v 3 h 1 v 5 h 1 v -5 h 2 v -2 h 2 v 1 h -3 v 2 h -5 v -4 h -1 v -1 h -1 v -2 h -1 v 1 h 2 v -2 h -3 v 3 h 1 v 1 h -4 v -1 h 2 v -2 h -1 v -1 h -1 v -1 h -9 v -2 h -1 v 2 h -3 v -3 h -4 v -2 h -5 v 4 h 4 v -1 h 1 v 2 h -3 v -2 h -1 v 3 h -2 v 4 h -1 v 2 H 9 v 1 h 2 v 2 h -1 v 2 H 8 V 32 H 3 v 3 H 2 v 1 h 1 v 2 H 2 v 1 h 2 v 1 H 3 v 1 H 0 V 40 H 1 V 31 H 0 v -3 h 2 v 1 H 1 V 24 H 0 v 2 h 2 v 1 H 4 V 26 H 3 V 22 H 2 v 2 H 4 V 23 H 0 v -2 h 1 v -2 h 1 v 1 H 0 V 17 H 1 V 16 H 0 V 14 H 7 V 12 H 6 v 4 H 7 V 15 H 3 v 2 H 2 v 1 h 1 v 1 H 5 V 17 H 4 V 16 H 2 V 15 H 1 V 11 H 2 V 10 H 9 V 5 H 8 V 4 h 2 z m 4,0 h 1 v 1 h -1 z m 12,0 h 3 v 9 h 3 V 8 h 1 v 2 h 2 V 9 h 1 V 8 H 35 V 6 h 3 v 2 h -1 v 1 h 1 v 2 h 3 v 2 h 1 v -2 h 4 V 9 h -4 v 1 H 41 V 8 H 40 V 6 h 1 V 7 H 37 V 4 h 1 V 3 H 37 V 2 H 36 V 0 h 2 v 2 h 1 v 2 h 1 V 3 h 1 V 0 H 40 V 1 H 35 V 2 H 32 V 0 h 2 v 1 h -9 v 2 h -1 v 1 h 2 z m 16,0 h 7 V 7 H 42 Z M 1,1 H 6 V 6 H 1 Z m 42,0 h 5 V 6 H 43 Z M 2,2 H 5 V 5 H 2 Z m 42,0 h 3 V 5 H 44 Z M 34,3 h 2 V 7 H 34 Z M 23,5 h 3 v 3 h -3 z m 1,1 h 1 V 7 H 24 Z M 0,8 H 1 V 9 H 0 Z m 4,0 h 1 v 3 H 4 Z m 43,0 h 1 v 3 h 1 V 9 h -2 z m -23,2 h 3 v 1 h -3 z m 5,0 h 1 v 3 h -1 z m -13,1 h 1 v 1 h -1 z m 4,4 h 1 v 1 h -1 z m 3,1 h 9 v 3 h -2 v 4 h 2 v -2 h -1 v 3 h 1 v 1 h -2 v 1 h 1 v 6 h -7 v -1 h 1 v -4 h -1 v 3 h 2 v -3 h 4 v 3 h -1 v -6 h -1 v -3 h -2 v -1 h 3 v 3 h -2 v -5 h -4 z m 18,0 h 1 v 2 h -2 v -1 h 1 z M 5,23 h 3 v 3 H 5 Z m 18,0 h 3 v 3 h -3 z m 18,0 h 3 v 3 H 41 Z M 6,24 h 1 v 1 H 6 Z m 18,0 h 1 v 1 h -1 z m 18,0 h 1 v 1 h -1 z m 5,0 h 2 v 2 h -3 v 2 h -1 v 1 h -5 v 2 h -1 v 5 h -4 v 1 h -1 v -2 h -3 v -1 h -4 v -9 h 1 v 6 h -2 v 3 h -1 v 3 h 2 v 1 h 3 v 2 h -1 v 1 h 1 v 4 h -1 v -3 h 2 v -4 h 3 v 1 h 1 v 2 h 4 v -2 h -1 v 4 h -1 v -1 h -1 v -3 h 1 v -1 h 2 v -1 h 1 v 2 h 6 v -4 h 2 v 1 h 1 v 5 h -1 v -2 h -1 v 1 h -7 v 2 h -1 v 2 h 1 v 1 h 4 v 3 h 2 v -7 h 1 v 1 h 1 v 3 h 1 v -1 h -2 v -1 h -2 v -6 h 3 v 1 h -5 v -3 h -2 v 1 h -1 v -1 h -2 v 2 h -1 v -2 h -1 v -3 h -2 v 2 h 4 v -3 h -2 v -3 h -2 v 3 h -1 v 1 h -1 v 2 h 1 v 5 h -4 v -6 h 1 v -2 h 2 v -2 h 3 v 1 h 3 v -2 h -1 v 4 h 5 v 4 h 5 v -3 h 1 v 1 h -5 v -2 h 6 V 30 H 48 V 27 H 47 Z M 6,27 h 1 v 2 H 6 Z m 2,0 h 1 v 1 H 3 v 3 H 2 v -1 h 2 v -1 h 1 v 1 h 3 z m 14,0 h 1 v 2 H 22 Z M 6,31 h 1 v 2 H 4 v 1 h 1 v 1 H 7 V 34 H 6 Z m -6,2 h 2 v 1 H 0 Z m 40,0 h 1 v 1 H 40 Z M 6,40 h 1 v 1 H 6 Z m 4,0 h 1 v 1 H 8 v 1 h 2 z m 13,1 h 3 v 3 h -3 z m 18,0 h 3 v 3 H 41 Z M 0,42 h 7 v 7 H 0 Z m 24,0 h 1 v 1 h -1 z m 18,0 h 1 v 1 H 42 Z M 1,43 h 5 v 5 H 1 Z m 1,1 h 3 v 3 H 2 Z m 11,3 h 1 v 2 h -1 z"
                 stroke="none"
                 fill-rule="evenodd"
                 id="path23"
                 fill="#000000" /></svg><svg
               width="7mm"
               height="7mm"
               x="73.70079"
               y="73.70079"
               viewBox="0 0 36 36"
               version="1.1"
               id="svg26"
               style="display:inline"><path
                 d="M 0,0 H 36 V 36 H 0 Z"
                 fill="#ffffff"
                 id="path24"
                 style="fill:#e4e1d0;fill-opacity:1" /><path
                 d="M 2,2 H 34 V 34 H 2 Z"
                 fill="#000000"
                 id="path25" /><path
                 d="m 15,8 h 6 v 7 h 7 v 6 h -7 v 7 H 15 V 21 H 8 v -6 h 7 z"
                 fill="#ffffff"
                 id="path26"
                 style="fill:#e4e1d0;fill-opacity:1" /></svg></svg><text
             x="0mm"
             y="66mm"
             font-size="10.6667px"
             font-weight="bold"
             id="text26">Währung</text><text
             x="0mm"
             y="70mm"
             font-size="13.3333px"
             id="text27">CHF</text><text
             x="22mm"
             y="66mm"
             font-size="10.6667px"
             font-weight="bold"
             id="text28">Betrag</text><svg
             x="36.661415"
             y="252.09448"
             width="40.599998mm"
             height="15.6mm"
             version="1.1"
             id="svg32"><svg
               x="1.1338583"
               y="1.1338583"
               width="3mm"
               height="3mm"
               viewBox="0 0 12 12"
               version="1.1"
               id="svg28"><path
                 d="M 0,0 H 12 V 1 H 1 V 12 H 0 Z"
                 id="path28" /></svg><svg
               x="140.97638"
               y="1.1338583"
               width="3mm"
               height="3mm"
               viewBox="0 0 12 12"
               version="1.1"
               id="svg29"><path
                 d="M 0,0 H 12 V 12 H 11 V 1 H 0 Z"
                 id="path29" /></svg><svg
               x="1.1338583"
               y="46.48819"
               width="3mm"
               height="3mm"
               viewBox="0 0 12 12"
               version="1.1"
               id="svg30"><path
                 d="m 0,0 h 1 v 11 h 11 v 1 H 0 Z"
                 id="path30" /></svg><svg
               x="140.97638"
               y="46.48819"
               width="3mm"
               height="3mm"
               viewBox="0 0 12 12"
               version="1.1"
               id="svg31"><path
                 d="m 11,0 h 1 V 12 H 0 v -1 h 11 z"
                 id="path31" /></svg></svg><!----><text
             x="51mm"
             y="-4.7600002mm"
             id="text35"><tspan
               x="51mm"
               dy="22pt"
               font-size="10.6667px"
               font-weight="bold"
               id="tspan32">Konto / Zahlbar an</tspan><tspan
               x="51mm"
               dy="11pt"
               font-size="13.3333px"
               id="tspan33">CH85 8080 8001 0401 1366 6</tspan><tspan
               x="51mm"
               dy="11pt"
               font-size="13.3333px"
               id="tspan34">Verein Gürbetalbahn 742</tspan><tspan
               x="51mm"
               dy="11pt"
               font-size="13.3333px"
               id="tspan35">3127 Mühlethurnen</tspan></text><text
             x="51mm"
             y="59mm"
             font-size="10.6667px"
             font-weight="bold"
             id="text36">Zahlbar durch (Name/Adresse)</text><svg
             x="191.62206"
             y="225.6378"
             width="65.599998mm"
             height="25.6mm"
             version="1.1"
             id="svg40"><svg
               x="1.1338583"
               y="1.1338583"
               width="3mm"
               height="3mm"
               viewBox="0 0 12 12"
               version="1.1"
               id="svg36"><path
                 d="M 0,0 H 12 V 1 H 1 V 12 H 0 Z"
                 id="path36" /></svg><svg
               x="235.46457"
               y="1.1338583"
               width="3mm"
               height="3mm"
               viewBox="0 0 12 12"
               version="1.1"
               id="svg37"><path
                 d="M 0,0 H 12 V 12 H 11 V 1 H 0 Z"
                 id="path37" /></svg><svg
               x="1.1338583"
               y="84.283463"
               width="3mm"
               height="3mm"
               viewBox="0 0 12 12"
               version="1.1"
               id="svg38"><path
                 d="m 0,0 h 1 v 11 h 11 v 1 H 0 Z"
                 id="path38" /></svg><svg
               x="235.46457"
               y="84.283463"
               width="3mm"
               height="3mm"
               viewBox="0 0 12 12"
               version="1.1"
               id="svg39"><path
                 d="m 11,0 h 1 V 12 H 0 v -1 h 11 z"
                 id="path39" /></svg></svg><text
             x="0mm"
             y="85.18mm"
             id="text40" /></svg></svg></g><rect
       style="opacity:0.522624;fill:none;fill-opacity:1;stroke:none;stroke-width:28.024;stroke-dashoffset:29.1024;stroke-opacity:1"
       id="rect3"
       width="793.70081"
       height="364.01938"
       x="384.66519"
       y="-412.95496"
       inkscape:label="ganz"
       inkscape:export-filename="DE-R.svg"
       inkscape:export-xdpi="96"
       inkscape:export-ydpi="96" /><rect
       style="opacity:0.522624;fill:none;fill-opacity:1;stroke:none;stroke-width:3.77478;stroke-dashoffset:29.1024;stroke-opacity:1"
       id="rect4"
       width="491.88632"
       height="360.27182"
       x="626.99567"
       y="-428.76791"
       inkscape:label="med"
       inkscape:export-filename="DE-R-M.svg"
       inkscape:export-xdpi="96"
       inkscape:export-ydpi="96" /><rect
       style="opacity:0.522624;fill:none;fill-opacity:0;stroke:none;stroke-width:3.77953;stroke-dashoffset:29.1024;stroke-opacity:1"
       id="rect5"
       width="173.85826"
       height="173.85826"
       x="637.89331"
       y="-365.42307"
       inkscape:label="o"
       inkscape:export-filename="DE-R-O.svg"
       inkscape:export-xdpi="96"
       inkscape:export-ydpi="96" /></g></svg>
