<?xml version="1.0" encoding="UTF-8" standalone="no"?>
<svg
   id="qr_bill_svg"
   width="46mm"
   height="46mm"
   font-family="'Liberation Sans', Arial, Frutiger, Helvetica, sans-serif"
   version="1.1"
   xmlns="http://www.w3.org/2000/svg"
   xmlns:svg="http://www.w3.org/2000/svg">
  <defs
     id="defs42" />
  <rect
     width="210mm"
     height="104.96799mm"
     fill="#ffffff"
     id="rect1"
     x="-253.22835"
     y="-64.131004"
     style="fill:#ffffff;fill-opacity:1;stroke-width:0.97686" />
  <rect
     width="55.937046mm"
     height="56.671833mm"
     fill="#ffffff"
     id="rect1-5"
     x="-18.897644"
     y="-21.485264"
     style="fill:#ff8eff;fill-opacity:1;stroke-width:0.370449" />
  <rect
     width="128.90982mm"
     height="97.04821mm"
     fill="#ffffff"
     id="rect1-5-3"
     x="-18.897644"
     y="-64.251976"
     style="fill:#ffffff;fill-opacity:1;stroke-width:0.735922" />
  <!---->
  <!---->
  <!---->
  <svg
     class="payment"
     x="234.3307"
     y="18.897638"
     width="148mm"
     height="105mm"
     version="1.1"
     id="svg42"
     transform="translate(-18.897644,-64.251974)">
    <svg
       class="innerPayment"
       x="18.897638"
       y="18.897638"
       width="138mm"
       height="95mm"
       version="1.1"
       id="svg41">
      <text
         x="0mm"
         y="3mm"
         font-size="14.6667px"
         font-weight="bold"
         id="text23">Zahlteil</text>
      <svg
         id="qr_code_svg"
         width="46mm"
         height="46mm"
         x="0mm"
         y="45.354332"
         version="1.1">
        <svg
           width="46mm"
           height="46mm"
           viewBox="0 0 49 49"
           version="1.1"
           id="svg24">
          <path
             d="M 0,0 H 7 V 7 H 0 Z m 10,0 h 1 v 1 h 1 V 0 h 1 v 2 h 3 V 0 h 1 v 1 h 2 v 2 h 1 V 1 h 1 V 2 H 18 V 3 H 16 V 4 H 13 V 3 H 9 V 1 H 8 v 1 h 3 V 9 H 8 v 4 H 4 V 12 H 3 V 8 H 2 V 9 H 7 V 8 H 6 v 3 h 8 v -1 h 2 V 9 h 1 V 8 h 2 V 9 H 18 V 5 h 1 V 4 H 17 V 7 H 15 V 5 H 14 V 8 H 13 V 6 H 8 v 1 h 4 V 5 h -2 v 3 h 2 v 1 h 1 v 7 H 8 v 2 h 5 v 1 h 1 v -5 h -3 v -4 h -1 v 3 h 2 v 2 H 9 v -1 h 1 v 5 H 8 v 1 h 2 v 1 H 8 v 1 H 4 V 21 H 7 V 20 H 4 v -2 h 3 v 1 H 6 v -2 h 3 v 6 h 1 v 1 H 9 v 1 h 3 v -1 h 8 v -3 h -1 v -3 h 1 v 2 h -2 v 2 h 1 v 1 h -1 v 3 h -1 v 1 h 1 v 2 h -1 v 2 h -2 v -1 h -2 v 1 H 9 v 4 H 8 v 2 H 6 v 1 h 1 v 1 H 5 v -3 h 4 v 3 h 3 v -1 h 1 v 2 h 1 v 1 h -1 v 3 h 2 v 1 h -1 v 1 h 1 v 3 h 4 v -2 h -1 v 1 h -2 v -2 h 2 v -1 h 1 v -5 h 1 v -3 h 1 v 3 h 2 v -1 h 3 v -3 h -2 v -2 h -1 v 1 h 4 v 1 h 1 v 4 h -4 v -3 h -1 v 1 h -1 v 4 h -1 v 4 h -1 v -4 h -2 v -1 h -1 v 1 h -2 v -1 h 1 v -3 h -2 v -2 h -2 v 1 h 1 v -3 h 1 v 1 h -4 v 1 h 1 v 2 H 8 v 2 h 1 v 4 H 8 v 1 h 3 v 2 h 1 v 2 H 8 v -1 h 2 V 47 H 8 v -1 h 2 v -2 h 2 v -1 h -1 v -1 h 3 v 1 h 3 v 1 h 5 v 4 h -2 v -1 h 3 v -1 h 4 v 1 h -2 v -2 h -1 v 4 h 1 v -1 h 3 v 1 h -2 v -4 h 1 v -1 h 6 v 1 h 1 v -1 h 1 v 5 h -1 v -1 h 9 v -1 h 2 v -1 h 2 v 2 h 1 v -2 h 1 v 3 h -9 v -3 h -2 v -1 h 1 v 4 h -1 v -2 h -1 v -3 h -1 v 3 h -2 v -1 h -1 v 2 h -4 v -2 h 2 v -1 h 1 v 4 h -2 v -2 h -2 v -6 h -1 v 2 h 8 v -1 h -1 v -1 h -2 v -5 h -1 v 1 h -1 v -2 h -2 v -2 h -5 v -2 h -3 v 1 h 2 v 1 h -1 v -3 h -1 v -1 h 1 v -6 h 1 v -8 h 2 v -3 h -4 v 2 h 1 V 6 h -1 v 5 h 2 V 9 h 3 v 3 h 2 v 3 h -1 v 2 h -1 v 2 h -1 v -2 h -6 v 1 h -2 v 1 h -1 v 4 h 1 v 3 h -1 v -1 h -1 v 1 h -2 v 1 h 2 v 6 h -3 v 1 h 1 v -5 h -1 v -1 h 4 v -1 h 1 v 5 h -1 v 1 h 1 v 1 h 2 v 2 h -2 v -1 h 1 v 3 h 1 v 1 h -1 v 1 h -2 v -3 h 4 v -2 h 3 v -1 h -1 v 2 h -1 v -3 h -3 v -1 h 1 v -2 h 1 v -4 h 1 v 2 h 12 v -1 h 1 v -2 h 1 v -1 h -1 v -3 h 1 v -1 h 1 v -1 h 1 v -2 h -1 v -2 h 1 v -2 h -1 v -2 h -1 v 2 h -1 v -2 h -1 v 4 h 2 v 2 h -1 v 3 h -2 v -2 h 8 v -2 h -6 v -2 h 10 v 1 h 2 v -1 h 2 v -4 h -4 v 3 h 3 v 3 h -3 v 3 h 2 v 5 h 1 v -5 h 1 v 2 h 2 v -1 h -1 v -1 h 1 v -2 h -4 v 1 h 2 v -2 h 1 v -2 h 1 V 12 H 45 V 8 h -1 v 4 h -5 v -2 h -2 v 3 h 1 V 12 H 28 v 3 h 2 v 3 h -2 v -1 h 1 v -3 h 2 V 11 H 28 V 8 h -1 v 1 h -1 v 5 h -4 v -1 h 1 v -3 h -5 v 2 h 1 v 3 h -1 v -1 h -1 v 2 h -2 v -3 h -1 v -1 h 1 V 8 h 1 V 6 h 3 v 1 h 3 V 5 H 20 V 4 h 1 V 3 h 2 V 4 H 22 V 2 h 1 V 1 H 22 V 0 h 2 v 2 h 6 v 2 h 1 V 3 h 1 v 4 h 1 V 6 h -6 v 1 h 1 V 3 h -1 v 2 h 3 v 2 h 1 V 5 h 2 V 4 h 2 v 1 h 4 v 4 h 1 v 4 h -1 v 2 h -1 v 2 h -1 v 2 h 1 v 3 h -1 v -1 h -1 v -1 h 3 v 1 h 2 v -1 h -1 v 2 h 2 v -1 h 1 v -1 h 1 v 2 h 4 v 3 h -3 v 2 h -1 v 1 h -5 v 2 h 3 v -3 h 1 v 3 h 1 v 5 h 1 v -5 h 2 v -2 h 2 v 1 h -3 v 2 h -5 v -4 h -1 v -1 h -1 v -2 h -1 v 1 h 2 v -2 h -3 v 3 h 1 v 1 h -4 v -1 h 2 v -2 h -1 v -1 h -1 v -1 h -9 v -2 h -1 v 2 h -3 v -3 h -4 v -2 h -5 v 4 h 4 v -1 h 1 v 2 h -3 v -2 h -1 v 3 h -2 v 4 h -1 v 2 H 9 v 1 h 2 v 2 h -1 v 2 H 8 V 32 H 3 v 3 H 2 v 1 h 1 v 2 H 2 v 1 h 2 v 1 H 3 v 1 H 0 V 40 H 1 V 31 H 0 v -3 h 2 v 1 H 1 V 24 H 0 v 2 h 2 v 1 H 4 V 26 H 3 V 22 H 2 v 2 H 4 V 23 H 0 v -2 h 1 v -2 h 1 v 1 H 0 V 17 H 1 V 16 H 0 V 14 H 7 V 12 H 6 v 4 H 7 V 15 H 3 v 2 H 2 v 1 h 1 v 1 H 5 V 17 H 4 V 16 H 2 V 15 H 1 V 11 H 2 V 10 H 9 V 5 H 8 V 4 h 2 z m 4,0 h 1 v 1 h -1 z m 12,0 h 3 v 9 h 3 V 8 h 1 v 2 h 2 V 9 h 1 V 8 H 35 V 6 h 3 v 2 h -1 v 1 h 1 v 2 h 3 v 2 h 1 v -2 h 4 V 9 h -4 v 1 H 41 V 8 H 40 V 6 h 1 V 7 H 37 V 4 h 1 V 3 H 37 V 2 H 36 V 0 h 2 v 2 h 1 v 2 h 1 V 3 h 1 V 0 H 40 V 1 H 35 V 2 H 32 V 0 h 2 v 1 h -9 v 2 h -1 v 1 h 2 z m 16,0 h 7 V 7 H 42 Z M 1,1 H 6 V 6 H 1 Z m 42,0 h 5 V 6 H 43 Z M 2,2 H 5 V 5 H 2 Z m 42,0 h 3 V 5 H 44 Z M 34,3 h 2 V 7 H 34 Z M 23,5 h 3 v 3 h -3 z m 1,1 h 1 V 7 H 24 Z M 0,8 H 1 V 9 H 0 Z m 4,0 h 1 v 3 H 4 Z m 43,0 h 1 v 3 h 1 V 9 h -2 z m -23,2 h 3 v 1 h -3 z m 5,0 h 1 v 3 h -1 z m -13,1 h 1 v 1 h -1 z m 4,4 h 1 v 1 h -1 z m 3,1 h 9 v 3 h -2 v 4 h 2 v -2 h -1 v 3 h 1 v 1 h -2 v 1 h 1 v 6 h -7 v -1 h 1 v -4 h -1 v 3 h 2 v -3 h 4 v 3 h -1 v -6 h -1 v -3 h -2 v -1 h 3 v 3 h -2 v -5 h -4 z m 18,0 h 1 v 2 h -2 v -1 h 1 z M 5,23 h 3 v 3 H 5 Z m 18,0 h 3 v 3 h -3 z m 18,0 h 3 v 3 H 41 Z M 6,24 h 1 v 1 H 6 Z m 18,0 h 1 v 1 h -1 z m 18,0 h 1 v 1 h -1 z m 5,0 h 2 v 2 h -3 v 2 h -1 v 1 h -5 v 2 h -1 v 5 h -4 v 1 h -1 v -2 h -3 v -1 h -4 v -9 h 1 v 6 h -2 v 3 h -1 v 3 h 2 v 1 h 3 v 2 h -1 v 1 h 1 v 4 h -1 v -3 h 2 v -4 h 3 v 1 h 1 v 2 h 4 v -2 h -1 v 4 h -1 v -1 h -1 v -3 h 1 v -1 h 2 v -1 h 1 v 2 h 6 v -4 h 2 v 1 h 1 v 5 h -1 v -2 h -1 v 1 h -7 v 2 h -1 v 2 h 1 v 1 h 4 v 3 h 2 v -7 h 1 v 1 h 1 v 3 h 1 v -1 h -2 v -1 h -2 v -6 h 3 v 1 h -5 v -3 h -2 v 1 h -1 v -1 h -2 v 2 h -1 v -2 h -1 v -3 h -2 v 2 h 4 v -3 h -2 v -3 h -2 v 3 h -1 v 1 h -1 v 2 h 1 v 5 h -4 v -6 h 1 v -2 h 2 v -2 h 3 v 1 h 3 v -2 h -1 v 4 h 5 v 4 h 5 v -3 h 1 v 1 h -5 v -2 h 6 V 30 H 48 V 27 H 47 Z M 6,27 h 1 v 2 H 6 Z m 2,0 h 1 v 1 H 3 v 3 H 2 v -1 h 2 v -1 h 1 v 1 h 3 z m 14,0 h 1 v 2 H 22 Z M 6,31 h 1 v 2 H 4 v 1 h 1 v 1 H 7 V 34 H 6 Z m -6,2 h 2 v 1 H 0 Z m 40,0 h 1 v 1 H 40 Z M 6,40 h 1 v 1 H 6 Z m 4,0 h 1 v 1 H 8 v 1 h 2 z m 13,1 h 3 v 3 h -3 z m 18,0 h 3 v 3 H 41 Z M 0,42 h 7 v 7 H 0 Z m 24,0 h 1 v 1 h -1 z m 18,0 h 1 v 1 H 42 Z M 1,43 h 5 v 5 H 1 Z m 1,1 h 3 v 3 H 2 Z m 11,3 h 1 v 2 h -1 z"
             fill="#000000"
             stroke="none"
             fill-rule="evenodd"
             id="path23" />
        </svg>
        <svg
           width="7mm"
           height="7mm"
           x="73.70079"
           y="73.70079"
           viewBox="0 0 36 36"
           version="1.1"
           id="svg26">
          <path
             d="M 0,0 H 36 V 36 H 0 Z"
             fill="#ffffff"
             id="path24" />
          <path
             d="M 2,2 H 34 V 34 H 2 Z"
             fill="#000000"
             id="path25" />
          <path
             d="m 15,8 h 6 v 7 h 7 v 6 h -7 v 7 H 15 V 21 H 8 v -6 h 7 z"
             fill="#ffffff"
             id="path26" />
        </svg>
      </svg>
      <text
         x="0mm"
         y="66mm"
         font-size="10.6667px"
         font-weight="bold"
         id="text26">Währung</text>
      <text
         x="0mm"
         y="70mm"
         font-size="13.3333px"
         id="text27">CHF</text>
      <text
         x="22mm"
         y="66mm"
         font-size="10.6667px"
         font-weight="bold"
         id="text28">Betrag</text>
      <svg
         x="36.661415"
         y="252.09448"
         width="40.599998mm"
         height="15.6mm"
         version="1.1"
         id="svg32">
        <svg
           x="1.1338583"
           y="1.1338583"
           width="3mm"
           height="3mm"
           viewBox="0 0 12 12"
           version="1.1"
           id="svg28">
          <path
             d="M 0,0 H 12 V 1 H 1 V 12 H 0 Z"
             id="path28" />
        </svg>
        <svg
           x="140.97638"
           y="1.1338583"
           width="3mm"
           height="3mm"
           viewBox="0 0 12 12"
           version="1.1"
           id="svg29">
          <path
             d="M 0,0 H 12 V 12 H 11 V 1 H 0 Z"
             id="path29" />
        </svg>
        <svg
           x="1.1338583"
           y="46.48819"
           width="3mm"
           height="3mm"
           viewBox="0 0 12 12"
           version="1.1"
           id="svg30">
          <path
             d="m 0,0 h 1 v 11 h 11 v 1 H 0 Z"
             id="path30" />
        </svg>
        <svg
           x="140.97638"
           y="46.48819"
           width="3mm"
           height="3mm"
           viewBox="0 0 12 12"
           version="1.1"
           id="svg31">
          <path
             d="m 11,0 h 1 V 12 H 0 v -1 h 11 z"
             id="path31" />
        </svg>
      </svg>
      <!---->
      <text
         x="51mm"
         y="-4.7600002mm"
         id="text35"><tspan
           x="51mm"
           dy="22pt"
           font-size="10.6667px"
           font-weight="bold"
           id="tspan32">Konto / Zahlbar an</tspan><tspan
           x="51mm"
           dy="11pt"
           font-size="13.3333px"
           id="tspan33">CH85 8080 8001 0401 1366 6</tspan><tspan
           x="51mm"
           dy="11pt"
           font-size="13.3333px"
           id="tspan34">Verein Gürbetalbahn 742</tspan><tspan
           x="51mm"
           dy="11pt"
           font-size="13.3333px"
           id="tspan35">3127 Mühlethurnen</tspan></text>
      <text
         x="51mm"
         y="59mm"
         font-size="10.6667px"
         font-weight="bold"
         id="text36">Zahlbar durch (Name/Adresse)</text>
      <svg
         x="191.62206"
         y="225.6378"
         width="65.599998mm"
         height="25.6mm"
         version="1.1"
         id="svg40">
        <svg
           x="1.1338583"
           y="1.1338583"
           width="3mm"
           height="3mm"
           viewBox="0 0 12 12"
           version="1.1"
           id="svg36">
          <path
             d="M 0,0 H 12 V 1 H 1 V 12 H 0 Z"
             id="path36" />
        </svg>
        <svg
           x="235.46457"
           y="1.1338583"
           width="3mm"
           height="3mm"
           viewBox="0 0 12 12"
           version="1.1"
           id="svg37">
          <path
             d="M 0,0 H 12 V 12 H 11 V 1 H 0 Z"
             id="path37" />
        </svg>
        <svg
           x="1.1338583"
           y="84.283463"
           width="3mm"
           height="3mm"
           viewBox="0 0 12 12"
           version="1.1"
           id="svg38">
          <path
             d="m 0,0 h 1 v 11 h 11 v 1 H 0 Z"
             id="path38" />
        </svg>
        <svg
           x="235.46457"
           y="84.283463"
           width="3mm"
           height="3mm"
           viewBox="0 0 12 12"
           version="1.1"
           id="svg39">
          <path
             d="m 11,0 h 1 V 12 H 0 v -1 h 11 z"
             id="path39" />
        </svg>
      </svg>
      <text
         x="0mm"
         y="85.18mm"
         id="text40" />
    </svg>
  </svg>
</svg>
